<?xml version="1.0" encoding="UTF-8" standalone="no"?><!DOCTYPE svg PUBLIC "-//W3C//DTD SVG 1.1//EN" "http://www.w3.org/Graphics/SVG/1.1/DTD/svg11.dtd"><svg width="100%" height="100%" viewBox="0 0 800 800" version="1.1" xmlns="http://www.w3.org/2000/svg" xmlns:xlink="http://www.w3.org/1999/xlink" xml:space="preserve" xmlns:serif="http://www.serif.com/" style="fill-rule:evenodd;clip-rule:evenodd;stroke-linejoin:round;stroke-miterlimit:2;"><rect id="final" x="0" y="0" width="800" height="800" style="fill:none;"/><g><path d="M547.368,0l84.211,0l-0,294.737l-294.737,-0l0,-84.211l210.526,0l0,-210.526Z" style="fill:#fff;"/><path d="M168.421,0l84.211,0l-0,378.947l378.947,0l-0,84.211l-463.158,-0l0,-463.158Z" style="fill:#fff;"/><path d="M0,0l84.211,0l-0,715.789l715.789,0l-0,84.211l-800,0l0,-800Z" style="fill:#fff;"/><path d="M715.789,0l84.211,0l0,631.579l-631.579,-0l0,-84.211l547.368,0l0,-547.368Z" style="fill:#fff;"/><rect x="336.842" y="0" width="126.316" height="126.316" style="fill:#ff2b38;"/></g></svg>